<svg width="42" height="56" viewBox="0 0 42 56" fill="none" xmlns="http://www.w3.org/2000/svg">
<rect y="9" width="42" height="39" rx="9" fill="#F2D399"/>
<path d="M19 46H8.22727V11.0909H19.4773C22.8636 11.0909 25.7614 11.7898 28.1705 13.1875C30.5795 14.5739 32.4261 16.5682 33.7102 19.1705C34.9943 21.7614 35.6364 24.8636 35.6364 28.4773C35.6364 32.1136 34.9886 35.2443 33.6932 37.8693C32.3977 40.483 30.5114 42.4943 28.0341 43.9034C25.5568 45.3011 22.5455 46 19 46ZM12.4545 42.25H18.7273C21.6136 42.25 24.0057 41.6932 25.9034 40.5795C27.8011 39.4659 29.2159 37.8807 30.1477 35.8239C31.0795 33.767 31.5455 31.3182 31.5455 28.4773C31.5455 25.6591 31.0852 23.233 30.1648 21.1989C29.2443 19.1534 27.8693 17.5852 26.0398 16.4943C24.2102 15.392 21.9318 14.8409 19.2045 14.8409H12.4545V42.25Z" fill="#734949"/>
<path d="M12.6591 11.0909L23.0227 40.4773H23.4318L33.7955 11.0909H38.2273L25.4091 46H21.0455L8.22727 11.0909H12.6591Z" fill="#D9A282"/>
<path d="M8.22727 46V11.0909H20.0227C22.7614 11.0909 25 11.5852 26.7386 12.5739C28.4886 13.5511 29.7841 14.875 30.625 16.5455C31.4659 18.2159 31.8864 20.0795 31.8864 22.1364C31.8864 24.1932 31.4659 26.0625 30.625 27.7443C29.7955 29.4261 28.5114 30.767 26.7727 31.767C25.0341 32.7557 22.8068 33.25 20.0909 33.25H11.6364V29.5H19.9545C21.8295 29.5 23.3352 29.1761 24.4716 28.5284C25.608 27.8807 26.4318 27.0057 26.9432 25.9034C27.4659 24.7898 27.7273 23.5341 27.7273 22.1364C27.7273 20.7386 27.4659 19.4886 26.9432 18.3864C26.4318 17.2841 25.6023 16.4205 24.4545 15.7955C23.3068 15.1591 21.7841 14.8409 19.8864 14.8409H12.4545V46H8.22727Z" fill="#BF3636"/>
</svg>
